# xmcd CD database file
#
# Track frame offsets:
#	150
#	6369
#	27379
#	45648
#	63648
#	85817
#	107508
#	111728
#	129784
#	150013
#	161809
#	177039
#	200444
#	282327
#
# Disc length: 4186 seconds
#
# Revision: 0
# Processed by: cddbd v1.5.1PL0 Copyright (c) Steve Scherf et al.
# Submitted via: CDex 1.51
#
DISCID=b510580e
DTITLE=Guru Josh - Jazzmatazz Vol. I and Bonus Tracks
DYEAR=1900
DGENRE=Jazz
TTITLE0=Introduction
TTITLE1=Loungin´
TTITLE2=When You´re Near
TTITLE3=Transit Ride
TTITLE4=No Time To Play
TTITLE5=Down The Blackstreets
TTITLE6=Respectful Dedications
TTITLE7=Take A Look (At Yourself)
TTITLE8=Trust Me
TTITLE9=Slicker Than Most
TTITLE10=Le Bien, Le Mal
TTITLE11=Sights In The City
TTITLE12=A Love Supreme - Branford Marsalis
TTITLE13=A Love Supreme - Alice Coltrane
EXTD=
EXTT0=
EXTT1=
EXTT2=
EXTT3=
EXTT4=
EXTT5=
EXTT6=
EXTT7=
EXTT8=
EXTT9=
EXTT10=
EXTT11=
EXTT12=
EXTT13=
PLAYORDER=
